Coordinates
version=1
nRows=40
nColumns=13
inDegrees=yes

Units are S.I. units (second, meters, Newtons, ...)
If the header above contains a line with 'inDegrees', this indicates whether rotational values are in degrees (yes) or radians (no).

endheader
time	bJoint_3	seatpos	hipangle	kneeangle	footangle	lbackangle	uarmleft_out	uarmleft_trn	uarmleft_up	uarmright_out	uarmright_trn	uarmright_up
      1.74000000	      0.00000000	     -0.10607677	     67.27419801	     54.61056182	     31.88475983	     -9.28242769	     21.25036684	     31.92119990	     -0.00000000	     26.15520447	     32.31869407	      0.00000000
      1.74500000	     -0.00000000	     -0.10912682	     66.85175016	     55.42414406	     32.27589422	     -8.88003212	     20.74978721	     31.72620016	     -0.00000000	     25.78640505	     32.39280516	      0.00000000
      1.75000000	      0.00000000	     -0.11214892	     66.43896975	     56.21954721	     32.65851696	     -8.51719144	     20.23202726	     31.66043094	     -0.00000000	     25.25595768	     32.15893138	      0.00000000
      1.75500000	      0.00000000	     -0.11520743	     66.02684438	     57.01412398	     33.04096836	     -8.09143896	     19.72283946	     31.66972026	     -0.00000000	     24.74827031	     32.17162366	      0.00000000
      1.76000000	      0.00000000	     -0.11808437	     65.64414282	     57.75236422	     33.39650704	     -7.70421031	     19.39082176	     31.39370407	     -0.00000000	     24.19519886	     32.12767853	      0.00000000
      1.76500000	      0.00000000	     -0.12215570	     65.11041861	     58.78256660	     33.89298521	     -7.37758255	     18.97353926	     31.39004311	     -0.00000000	     23.77680214	     31.95330147	      0.00000000
      1.77000000	      0.00000000	     -0.12507711	     64.73287825	     59.51175132	     34.24462957	     -6.94814517	     18.42784355	     31.21922218	     -0.00000000	     23.23136747	     31.96238966	      0.00000000
      1.77500000	      0.00000000	     -0.12812915	     64.34310742	     60.26495310	     34.60806051	     -6.58645376	     17.88503376	     30.98564709	     -0.00000000	     22.54435276	     31.64557688	      0.00000000
      1.78000000	     -0.00000000	     -0.13102615	     63.97737753	     60.97206524	     34.94944277	     -6.12799121	     17.20914940	     30.92965687	     -0.00000000	     21.98839492	     31.68712995	      0.00000000
      1.78500000	      0.00000000	     -0.13513310	     63.46569448	     61.96196970	     35.42766418	     -5.80271812	     16.77352701	     30.75541600	     -0.00000000	     21.42219273	     31.42799875	      0.00000000
      1.79000000	     -0.00000000	     -0.13806266	     63.10538978	     62.65944220	     35.76483198	     -5.36951484	     16.08709642	     30.50029534	     -0.00000000	     20.85010120	     31.27201464	      0.00000000
      1.79500000	      0.00000000	     -0.14211000	     62.61376420	     63.61169640	     36.22546060	     -5.08255202	     15.63604915	     30.27840729	     -0.00000000	     20.26117442	     31.14286250	      0.00000000
      1.80000000	      0.00000000	     -0.14501700	     62.26490300	     64.28782775	     36.55273075	     -4.62377305	     15.14429440	     30.00330697	     -0.00000000	     19.54858987	     30.92515247	      0.00000000
      1.80500000	      0.00000000	     -0.14916606	     61.77289614	     65.24196810	     37.01486424	     -4.29227671	     14.58266167	     29.75013184	     -0.00000000	     19.30108261	     30.71304019	      0.00000000
      1.81000000	      0.00000000	     -0.15209788	     61.42927901	     65.90874321	     37.33802223	     -3.84464130	     13.87061747	     29.51506215	     -0.00000000	     18.57630829	     30.48771254	      0.00000000
      1.81500000	      0.00000000	     -0.15598717	     60.97842322	     66.78412065	     37.76254387	     -3.47790613	     13.26683755	     29.27822917	     -0.00000000	     17.95929407	     30.25945152	      0.00000000
      1.82000000	      0.00000000	     -0.15922437	     60.60734579	     67.50503996	     38.11238575	     -3.06631185	     12.78942170	     28.80798702	     -0.00000000	     17.25798978	     30.02309149	      0.00000000
      1.82500000	      0.00000000	     -0.16314356	     60.16300052	     68.36882942	     38.53182994	     -2.71242739	     12.18116247	     28.56127226	     -0.00000000	     16.63449392	     29.60582467	      0.00000000
      1.83000000	      0.00000000	     -0.16700929	     59.72980043	     69.21151297	     38.94131340	     -2.31804033	     11.55308269	     28.35350732	     -0.00000000	     16.07998169	     29.26800036	      0.00000000
      1.83500000	      0.00000000	     -0.16999009	     59.39910019	     69.85518489	     39.25428508	     -1.88457130	     10.81667740	     27.92914473	     -0.00000000	     15.33028489	     29.03531103	      0.00000000
      1.84000000	      0.00000000	     -0.17423999	     58.93245274	     70.76402465	     39.69647739	     -1.55115060	     10.34055509	     27.38099299	     -0.00000000	     14.73465803	     28.62475606	      0.00000000
      1.84500000	     -0.00000000	     -0.17815857	     58.50707295	     71.59307161	     40.10014456	     -1.17973490	      9.70869624	     27.15425851	     -0.00000000	     13.97447846	     28.14082793	      0.00000000
      1.85000000	      0.00000000	     -0.18208754	     58.08510814	     72.41601709	     40.50112523	     -0.81547964	      9.07556386	     26.73793898	     -0.00000000	     13.53117587	     27.86787297	      0.00000000
      1.85500000	     -0.00000000	     -0.18508214	     57.76645582	     73.03784578	     40.80430160	     -0.34927797	      8.41495412	     26.22572894	     -0.00000000	     12.64024853	     27.40719617	      0.00000000
      1.86000000	     -0.00000000	     -0.18915737	     57.33680590	     73.87679037	     41.21359627	      0.05016939	      7.77046483	     25.85564410	     -0.00000000	     11.88079163	     26.96626261	      0.00000000
      1.86500000	      0.00000000	     -0.19311191	     56.92414843	     74.68311563	     41.60726407	      0.42192245	      7.02497310	     25.36611006	     -0.00000000	     11.42289546	     26.52310546	      0.00000000
      1.87000000	      0.00000000	     -0.19706449	     56.51576213	     75.48164405	     41.99740618	      0.80132526	      6.47922020	     24.66282468	     -0.00000000	     10.64639352	     26.05187071	      0.00000000
      1.87500000	      0.00000000	     -0.20102657	     56.11035022	     76.27490492	     42.38525513	      1.17301188	      5.82154473	     24.25290453	     -0.00000000	     10.07084274	     25.53191261	      0.00000000
      1.88000000	      0.00000000	     -0.20514774	     55.69273417	     77.09262561	     42.78535977	      1.58813604	      5.26332050	     23.78459952	     -0.00000000	      9.29371889	     24.92345158	      0.00000000
      1.88500000	     -0.00000000	     -0.20913982	     55.29204240	     77.87776983	     43.16981223	      1.95968378	      4.50804283	     23.11202265	     -0.00000000	      8.51491292	     24.44819076	      0.00000000
      1.89000000	      0.00000000	     -0.21313727	     54.89448773	     78.65732028	     43.55180801	      2.34080279	      3.94925147	     22.41683331	     -0.00000000	      7.92926952	     23.75674940	      0.00000000
      1.89500000	      0.00000000	     -0.21730323	     54.48397777	     79.46286227	     43.94684004	      2.75563210	      3.17581584	     21.98472346	     -0.00000000	      7.14298896	     23.33460789	      0.00000000
      1.90000000	      0.00000000	     -0.22133093	     54.09067678	     80.23520508	     44.32588186	      3.13701953	      2.61093405	     21.29383507	     -0.00000000	      6.55243053	     22.64649398	      0.00000000
      1.90500000	     -0.00000000	     -0.22595939	     53.64293680	     81.11514341	     44.75808021	      3.52125994	      1.88843093	     20.67514619	     -0.00000000	      6.01637453	     22.00344138	      0.00000000
      1.91000000	      0.00000000	     -0.23002123	     53.25362604	     81.88086056	     45.13448661	      3.88692013	      1.33003576	     19.78256329	     -0.00000000	      5.23189388	     21.33914034	      0.00000000
      1.91500000	      0.00000000	     -0.23425739	     52.85110701	     82.67316354	     45.52427054	      4.29378959	      0.55004808	     19.15301508	     -0.00000000	      4.63535776	     20.68764164	      0.00000000
      1.92000000	      0.00000000	     -0.23835089	     52.46544841	     83.43286868	     45.89831709	      4.66799230	     -0.01933390	     18.46452785	     -0.00000000	      3.84293126	     20.03150422	      0.00000000
      1.92500000	      0.00000000	     -0.24216220	     52.10921966	     84.13512227	     46.24434193	      5.12032430	     -0.67882031	     17.62263686	     -0.00000000	      3.16719129	     19.19411891	      0.00000000
      1.93000000	      0.00000000	     -0.24710458	     51.65125166	     85.03869112	     46.68994278	      5.44854082	     -1.35135749	     16.97568146	     -0.00000000	      2.58114112	     18.46567367	      0.00000000
      1.93500000	     -0.00000000	     -0.25143455	     51.25362518	     85.82390553	     47.07753071	      5.84029075	     -1.92929457	     16.11957465	     -0.00000000	      1.78944043	     17.64062884	      0.00000000
